<?xml version="1.0" encoding="UTF-8"?>
<svg width="1024px" height="1024px" viewBox="0 0 1024 1024" version="1.1" xmlns="http://www.w3.org/2000/svg" xmlns:xlink="http://www.w3.org/1999/xlink">
    <title>logo B</title>
    <defs>
        <linearGradient x1="-1.54470019%" y1="50.7460842%" x2="104.861603%" y2="48.0581623%" id="linearGradient-1">
            <stop stop-color="#38F9D7" offset="0%"></stop>
            <stop stop-color="#43E97B" offset="100%"></stop>
        </linearGradient>
        <linearGradient x1="45.0790511%" y1="54.1063673%" x2="95.4520998%" y2="47.3267737%" id="linearGradient-2">
            <stop stop-color="#38F9D7" offset="0%"></stop>
            <stop stop-color="#43E97B" offset="100%"></stop>
        </linearGradient>
        <path d="M9.09120999,96.4220286 C16.5904261,110.288677 92.433638,148.53172 192.641708,131.873153 C292.849778,115.214586 340.691187,51.4809845 335.637864,42.1369872 C332.577252,36.4776716 288.843763,25.5289051 235.512287,40.7185025 C200.789093,50.6081843 163.164697,85.583308 126.044049,92.2771445 C31.9096648,109.252068 1.59199388,82.5553799 9.09120999,96.4220286 Z" id="path-3"></path>
    </defs>
    <g id="logo-B" stroke="none" stroke-width="1" fill="none" fill-rule="evenodd">
        <path d="M240,539.04 L240,525.96 L192.6,525.96 L192.6,502.8 L233.16,502.8 L233.16,489.96 L192.6,489.96 L192.6,468.12 L238.32,468.12 L238.32,455.04 L177,455.04 L177,539.04 L240,539.04 Z M282.48,539.88 C286.64,539.88 290.52,539.1 294.12,537.54 C297.72,535.98 300.72,533.76 303.12,530.88 L303.12,530.88 L303.12,539.04 L317.4,539.04 L317.4,474.96 L302.4,474.96 L302.4,507.36 C302.4,513.6 300.82,518.38 297.66,521.7 C294.5,525.02 290.24,526.68 284.88,526.68 C280.08,526.68 276.38,525.26 273.78,522.42 C271.18,519.58 269.88,515.28 269.88,509.52 L269.88,509.52 L269.88,474.96 L254.88,474.96 L254.88,511.56 C254.88,520.92 257.34,527.98 262.26,532.74 C267.18,537.5 273.92,539.88 282.48,539.88 Z M366.48,539.88 C372.72,539.88 378.22,538.58 382.98,535.98 C387.74,533.38 391.36,529.68 393.84,524.88 L393.84,524.88 L382.32,518.16 C380.48,521.12 378.18,523.34 375.42,524.82 C372.66,526.3 369.64,527.04 366.36,527.04 C360.68,527.04 356.02,525.22 352.38,521.58 C348.74,517.94 346.92,513.08 346.92,507 C346.92,500.92 348.76,496.06 352.44,492.42 C356.12,488.78 360.76,486.96 366.36,486.96 C369.64,486.96 372.66,487.7 375.42,489.18 C378.18,490.66 380.48,492.88 382.32,495.84 L382.32,495.84 L393.84,489.12 C391.44,484.32 387.86,480.64 383.1,478.08 C378.34,475.52 372.8,474.24 366.48,474.24 C359.76,474.24 353.78,475.64 348.54,478.44 C343.3,481.24 339.2,485.12 336.24,490.08 C333.28,495.04 331.8,500.68 331.8,507 C331.8,513.32 333.28,518.98 336.24,523.98 C339.2,528.98 343.32,532.88 348.6,535.68 C353.88,538.48 359.84,539.88 366.48,539.88 Z M426.12,539.88 C430.92,539.88 435.02,539.14 438.42,537.66 C441.82,536.18 444.44,534.04 446.28,531.24 L446.28,531.24 L446.28,539.04 L460.44,539.04 L460.44,501.48 C460.44,492.36 457.94,485.54 452.94,481.02 C447.94,476.5 440.72,474.24 431.28,474.24 C426,474.24 421,474.92 416.28,476.28 C411.56,477.64 407.52,479.6 404.16,482.16 L404.16,482.16 L410.04,493.08 C412.44,491.08 415.38,489.52 418.86,488.4 C422.34,487.28 425.88,486.72 429.48,486.72 C434.76,486.72 438.74,487.92 441.42,490.32 C444.1,492.72 445.44,496.16 445.44,500.64 L445.44,500.64 L445.44,501.6 L428.88,501.6 C419.68,501.6 412.94,503.34 408.66,506.82 C404.38,510.3 402.24,514.92 402.24,520.68 C402.24,524.36 403.22,527.66 405.18,530.58 C407.14,533.5 409.92,535.78 413.52,537.42 C417.12,539.06 421.32,539.88 426.12,539.88 Z M429.24,528.96 C425.4,528.96 422.4,528.16 420.24,526.56 C418.08,524.96 417,522.8 417,520.08 C417,514.4 421.32,511.56 429.96,511.56 L429.96,511.56 L445.44,511.56 L445.44,519 C444.24,522.2 442.18,524.66 439.26,526.38 C436.34,528.1 433,528.96 429.24,528.96 Z M494.64,539.04 L494.64,450 L479.64,450 L479.64,539.04 L494.64,539.04 Z M519.6,563.16 C525.28,563.16 530.12,561.74 534.12,558.9 C538.12,556.06 541.52,551.16 544.32,544.2 L544.32,544.2 L574.32,474.96 L559.92,474.96 L539.64,522.36 L519.48,474.96 L503.88,474.96 L531.84,539.28 L530.76,541.8 C529.32,545 527.74,547.28 526.02,548.64 C524.3,550 522.12,550.68 519.48,550.68 C517.48,550.68 515.5,550.28 513.54,549.48 C511.58,548.68 509.88,547.6 508.44,546.24 L508.44,546.24 L502.44,557.28 C504.44,559.12 507,560.56 510.12,561.6 C513.24,562.64 516.4,563.16 519.6,563.16 Z M598.68,562.32 L598.68,531.24 C603.72,537 610.56,539.88 619.2,539.88 C625.44,539.88 631.02,538.52 635.94,535.8 C640.86,533.08 644.72,529.22 647.52,524.22 C650.32,519.22 651.72,513.48 651.72,507 C651.72,500.52 650.32,494.8 647.52,489.84 C644.72,484.88 640.86,481.04 635.94,478.32 C631.02,475.6 625.44,474.24 619.2,474.24 C614.8,474.24 610.78,475 607.14,476.52 C603.5,478.04 600.44,480.32 597.96,483.36 L597.96,483.36 L597.96,474.96 L583.68,474.96 L583.68,562.32 L598.68,562.32 Z M617.52,527.04 C613.92,527.04 610.68,526.22 607.8,524.58 C604.92,522.94 602.64,520.6 600.96,517.56 C599.28,514.52 598.44,511 598.44,507 C598.44,503 599.28,499.48 600.96,496.44 C602.64,493.4 604.92,491.06 607.8,489.42 C610.68,487.78 613.92,486.96 617.52,486.96 C623.04,486.96 627.58,488.8 631.14,492.48 C634.7,496.16 636.48,501 636.48,507 C636.48,513 634.7,517.84 631.14,521.52 C627.58,525.2 623.04,527.04 617.52,527.04 Z M690.12,539.88 C692.92,539.88 695.58,539.52 698.1,538.8 C700.62,538.08 702.76,537 704.52,535.56 L704.52,535.56 L700.32,524.88 C698.08,526.64 695.28,527.52 691.92,527.52 C689.04,527.52 686.84,526.7 685.32,525.06 C683.8,523.42 683.04,521.04 683.04,517.92 L683.04,517.92 L683.04,487.44 L700.2,487.44 L700.2,475.44 L683.04,475.44 L683.04,460.8 L668.04,460.8 L668.04,475.44 L657.48,475.44 L657.48,487.44 L668.04,487.44 L668.04,518.28 C668.04,525.32 669.96,530.68 673.8,534.36 C677.64,538.04 683.08,539.88 690.12,539.88 Z M744,539.88 C748.16,539.88 752.04,539.1 755.64,537.54 C759.24,535.98 762.24,533.76 764.64,530.88 L764.64,530.88 L764.64,539.04 L778.92,539.04 L778.92,474.96 L763.92,474.96 L763.92,507.36 C763.92,513.6 762.34,518.38 759.18,521.7 C756.02,525.02 751.76,526.68 746.4,526.68 C741.6,526.68 737.9,525.26 735.3,522.42 C732.7,519.58 731.4,515.28 731.4,509.52 L731.4,509.52 L731.4,474.96 L716.4,474.96 L716.4,511.56 C716.4,520.92 718.86,527.98 723.78,532.74 C728.7,537.5 735.44,539.88 744,539.88 Z M818.4,539.88 C827.36,539.88 834.44,538.08 839.64,534.48 C844.84,530.88 847.44,526.08 847.44,520.08 C847.44,515.52 846.26,512 843.9,509.52 C841.54,507.04 838.72,505.28 835.44,504.24 C832.16,503.2 827.96,502.28 822.84,501.48 C817.72,500.6 813.94,499.66 811.5,498.66 C809.06,497.66 807.84,495.96 807.84,493.56 C807.84,491.4 808.98,489.66 811.26,488.34 C813.54,487.02 816.88,486.36 821.28,486.36 C828.08,486.36 834.2,487.96 839.64,491.16 L839.64,491.16 L845.4,479.76 C842.6,478.08 839,476.74 834.6,475.74 C830.2,474.74 825.8,474.24 821.4,474.24 C812.76,474.24 805.9,476.06 800.82,479.7 C795.74,483.34 793.2,488.2 793.2,494.28 C793.2,498.92 794.42,502.54 796.86,505.14 C799.3,507.74 802.18,509.56 805.5,510.6 C808.82,511.64 813.12,512.56 818.4,513.36 C823.44,514.16 827.1,515 829.38,515.88 C831.66,516.76 832.8,518.32 832.8,520.56 C832.8,525.28 828.32,527.64 819.36,527.64 C815.44,527.64 811.46,527.06 807.42,525.9 C803.38,524.74 799.92,523.2 797.04,521.28 L797.04,521.28 L791.28,532.68 C794.24,534.76 798.2,536.48 803.16,537.84 C808.12,539.2 813.2,539.88 818.4,539.88 Z" id="Eucalyptus" fill="url(#linearGradient-1)" fill-rule="nonzero"></path>
        <g id="Eucalyptus" transform="translate(340.000000, 544.000000)">
            <mask id="mask-4" fill="white">
                <use xlink:href="#path-3"></use>
            </mask>
            <use id="Mask" fill="url(#linearGradient-2)" transform="translate(172.000000, 84.500000) rotate(12.000000) translate(-172.000000, -84.500000) " xlink:href="#path-3"></use>
            <path d="M-96.14,-5 L-96.14,-18.08 L-143.54,-18.08 L-143.54,-41.24 L-102.98,-41.24 L-102.98,-54.08 L-143.54,-54.08 L-143.54,-75.92 L-97.82,-75.92 L-97.82,-89 L-159.14,-89 L-159.14,-5 L-96.14,-5 Z M-53.66,-4.16 C-49.5,-4.16 -45.62,-4.94 -42.02,-6.5 C-38.42,-8.06 -35.42,-10.28 -33.02,-13.16 L-33.02,-13.16 L-33.02,-5 L-18.74,-5 L-18.74,-69.08 L-33.74,-69.08 L-33.74,-36.68 C-33.74,-30.44 -35.32,-25.66 -38.48,-22.34 C-41.64,-19.02 -45.9,-17.36 -51.26,-17.36 C-56.06,-17.36 -59.76,-18.78 -62.36,-21.62 C-64.96,-24.46 -66.26,-28.76 -66.26,-34.52 L-66.26,-34.52 L-66.26,-69.08 L-81.26,-69.08 L-81.26,-32.48 C-81.26,-23.12 -78.8,-16.06 -73.88,-11.3 C-68.96,-6.54 -62.22,-4.16 -53.66,-4.16 Z M30.34,-4.16 C36.58,-4.16 42.08,-5.46 46.84,-8.06 C51.6,-10.66 55.22,-14.36 57.7,-19.16 L57.7,-19.16 L46.18,-25.88 C44.34,-22.92 42.04,-20.7 39.28,-19.22 C36.52,-17.74 33.5,-17 30.22,-17 C24.54,-17 19.88,-18.82 16.24,-22.46 C12.6,-26.1 10.78,-30.96 10.78,-37.04 C10.78,-43.12 12.62,-47.98 16.3,-51.62 C19.98,-55.26 24.62,-57.08 30.22,-57.08 C33.5,-57.08 36.52,-56.34 39.28,-54.86 C42.04,-53.38 44.34,-51.16 46.18,-48.2 L46.18,-48.2 L57.7,-54.92 C55.3,-59.72 51.72,-63.4 46.96,-65.96 C42.2,-68.52 36.66,-69.8 30.34,-69.8 C23.62,-69.8 17.64,-68.4 12.4,-65.6 C7.16,-62.8 3.06,-58.92 0.1,-53.96 C-2.86,-49 -4.34,-43.36 -4.34,-37.04 C-4.34,-30.72 -2.86,-25.06 0.1,-20.06 C3.06,-15.06 7.18,-11.16 12.46,-8.36 C17.74,-5.56 23.7,-4.16 30.34,-4.16 Z M89.98,-4.16 C94.78,-4.16 98.88,-4.9 102.28,-6.38 C105.68,-7.86 108.3,-10 110.14,-12.8 L110.14,-12.8 L110.14,-5 L124.3,-5 L124.3,-42.56 C124.3,-51.68 121.8,-58.5 116.8,-63.02 C111.8,-67.54 104.58,-69.8 95.14,-69.8 C89.86,-69.8 84.86,-69.12 80.14,-67.76 C75.42,-66.4 71.38,-64.44 68.02,-61.88 L68.02,-61.88 L73.9,-50.96 C76.3,-52.96 79.24,-54.52 82.72,-55.64 C86.2,-56.76 89.74,-57.32 93.34,-57.32 C98.62,-57.32 102.6,-56.12 105.28,-53.72 C107.96,-51.32 109.3,-47.88 109.3,-43.4 L109.3,-43.4 L109.3,-42.44 L92.74,-42.44 C83.54,-42.44 76.8,-40.7 72.52,-37.22 C68.24,-33.74 66.1,-29.12 66.1,-23.36 C66.1,-19.68 67.08,-16.38 69.04,-13.46 C71,-10.54 73.78,-8.26 77.38,-6.62 C80.98,-4.98 85.18,-4.16 89.98,-4.16 Z M93.1,-15.08 C89.26,-15.08 86.26,-15.88 84.1,-17.48 C81.94,-19.08 80.86,-21.24 80.86,-23.96 C80.86,-29.64 85.18,-32.48 93.82,-32.48 L93.82,-32.48 L109.3,-32.48 L109.3,-25.04 C108.1,-21.84 106.04,-19.38 103.12,-17.66 C100.2,-15.94 96.86,-15.08 93.1,-15.08 Z M158.5,-5 L158.5,-94.04 L143.5,-94.04 L143.5,-5 L158.5,-5 Z M183.46,19.12 C189.14,19.12 193.98,17.7 197.98,14.86 C201.98,12.02 205.38,7.12 208.18,0.16 L208.18,0.16 L238.18,-69.08 L223.78,-69.08 L203.5,-21.68 L183.34,-69.08 L167.74,-69.08 L195.7,-4.76 L194.62,-2.24 C193.18,0.96 191.6,3.24 189.88,4.6 C188.16,5.96 185.98,6.64 183.34,6.64 C181.34,6.64 179.36,6.24 177.4,5.44 C175.44,4.64 173.74,3.56 172.3,2.2 L172.3,2.2 L166.3,13.24 C168.3,15.08 170.86,16.52 173.98,17.56 C177.1,18.6 180.26,19.12 183.46,19.12 Z M262.54,18.28 L262.54,-12.8 C267.58,-7.04 274.42,-4.16 283.06,-4.16 C289.3,-4.16 294.88,-5.52 299.8,-8.24 C304.72,-10.96 308.58,-14.82 311.38,-19.82 C314.18,-24.82 315.58,-30.56 315.58,-37.04 C315.58,-43.52 314.18,-49.24 311.38,-54.2 C308.58,-59.16 304.72,-63 299.8,-65.72 C294.88,-68.44 289.3,-69.8 283.06,-69.8 C278.66,-69.8 274.64,-69.04 271,-67.52 C267.36,-66 264.3,-63.72 261.82,-60.68 L261.82,-60.68 L261.82,-69.08 L247.54,-69.08 L247.54,18.28 L262.54,18.28 Z M281.38,-17 C277.78,-17 274.54,-17.82 271.66,-19.46 C268.78,-21.1 266.5,-23.44 264.82,-26.48 C263.14,-29.52 262.3,-33.04 262.3,-37.04 C262.3,-41.04 263.14,-44.56 264.82,-47.6 C266.5,-50.64 268.78,-52.98 271.66,-54.62 C274.54,-56.26 277.78,-57.08 281.38,-57.08 C286.9,-57.08 291.44,-55.24 295,-51.56 C298.56,-47.88 300.34,-43.04 300.34,-37.04 C300.34,-31.04 298.56,-26.2 295,-22.52 C291.44,-18.84 286.9,-17 281.38,-17 Z M353.98,-4.16 C356.78,-4.16 359.44,-4.52 361.96,-5.24 C364.48,-5.96 366.62,-7.04 368.38,-8.48 L368.38,-8.48 L364.18,-19.16 C361.94,-17.4 359.14,-16.52 355.78,-16.52 C352.9,-16.52 350.7,-17.34 349.18,-18.98 C347.66,-20.62 346.9,-23 346.9,-26.12 L346.9,-26.12 L346.9,-56.6 L364.06,-56.6 L364.06,-68.6 L346.9,-68.6 L346.9,-83.24 L331.9,-83.24 L331.9,-68.6 L321.34,-68.6 L321.34,-56.6 L331.9,-56.6 L331.9,-25.76 C331.9,-18.72 333.82,-13.36 337.66,-9.68 C341.5,-6 346.94,-4.16 353.98,-4.16 Z M407.86,-4.16 C412.02,-4.16 415.9,-4.94 419.5,-6.5 C423.1,-8.06 426.1,-10.28 428.5,-13.16 L428.5,-13.16 L428.5,-5 L442.78,-5 L442.78,-69.08 L427.78,-69.08 L427.78,-36.68 C427.78,-30.44 426.2,-25.66 423.04,-22.34 C419.88,-19.02 415.62,-17.36 410.26,-17.36 C405.46,-17.36 401.76,-18.78 399.16,-21.62 C396.56,-24.46 395.26,-28.76 395.26,-34.52 L395.26,-34.52 L395.26,-69.08 L380.26,-69.08 L380.26,-32.48 C380.26,-23.12 382.72,-16.06 387.64,-11.3 C392.56,-6.54 399.3,-4.16 407.86,-4.16 Z M482.26,-4.16 C491.22,-4.16 498.3,-5.96 503.5,-9.56 C508.7,-13.16 511.3,-17.96 511.3,-23.96 C511.3,-28.52 510.12,-32.04 507.76,-34.52 C505.4,-37 502.58,-38.76 499.3,-39.8 C496.02,-40.84 491.82,-41.76 486.7,-42.56 C481.58,-43.44 477.8,-44.38 475.36,-45.38 C472.92,-46.38 471.7,-48.08 471.7,-50.48 C471.7,-52.64 472.84,-54.38 475.12,-55.7 C477.4,-57.02 480.74,-57.68 485.14,-57.68 C491.94,-57.68 498.06,-56.08 503.5,-52.88 L503.5,-52.88 L509.26,-64.28 C506.46,-65.96 502.86,-67.3 498.46,-68.3 C494.06,-69.3 489.66,-69.8 485.26,-69.8 C476.62,-69.8 469.76,-67.98 464.68,-64.34 C459.6,-60.7 457.06,-55.84 457.06,-49.76 C457.06,-45.12 458.28,-41.5 460.72,-38.9 C463.16,-36.3 466.04,-34.48 469.36,-33.44 C472.68,-32.4 476.98,-31.48 482.26,-30.68 C487.3,-29.88 490.96,-29.04 493.24,-28.16 C495.52,-27.28 496.66,-25.72 496.66,-23.48 C496.66,-18.76 492.18,-16.4 483.22,-16.4 C479.3,-16.4 475.32,-16.98 471.28,-18.14 C467.24,-19.3 463.78,-20.84 460.9,-22.76 L460.9,-22.76 L455.14,-11.36 C458.1,-9.28 462.06,-7.56 467.02,-6.2 C471.98,-4.84 477.06,-4.16 482.26,-4.16 Z" fill="#FFFFFF" fill-rule="nonzero" mask="url(#mask-4)"></path>
        </g>
    </g>
</svg>